<?xml version="1.0" encoding="utf-8"?>
<!-- Generator: Adobe Illustrator 26.2.1, SVG Export Plug-In . SVG Version: 6.00 Build 0)  -->
<svg version="1.1" id="Layer_1" xmlns="http://www.w3.org/2000/svg" xmlns:xlink="http://www.w3.org/1999/xlink" x="0px" y="0px"
	 viewBox="0 0 1200 275.7" style="enable-background:new 0 0 1200 275.7;" xml:space="preserve">
<style type="text/css">
	.st0{fill:#5509D9;}
	.st1{fill:#1E2837;}
	.st2{fill:#1F2937;}
	.st3{fill:#FFFFFF;}
	.st4{fill:#7139EA;}
</style>
<g>
	<g>
		<polygon class="st3" points="391.8,151.5 367.7,66.6 339.2,66.6 339.2,209.5 362.3,209.5 362.3,109.4 381.3,178.5 402.4,178.5 
			421.4,109.2 421.4,209.5 444.3,209.5 444.3,66.6 415.8,66.6 		"/>
		<path class="st3" d="M524.3,98.3h-12.5h-0.9h-12.2c-8.8,0-15,2-18.7,5.9c-3.7,3.9-5.5,9.4-5.5,16.5v39.2v8.8v18.3
			c0,7.1,1.8,12.6,5.5,16.5c3.7,3.9,9.9,5.9,18.7,5.9H510h1.6h12.7c8.6,0,14.8-2,18.5-5.9c3.7-3.9,5.6-9.4,5.6-16.5v-18.6v-7.5
			v-40.3c0-7.1-1.9-12.6-5.6-16.5C539,100.3,532.9,98.3,524.3,98.3z M523.1,168.5v15.6c0,2.3-0.5,3.9-1.4,4.8s-2.6,1.4-5.2,1.4h-5
			H510h-3.9c-2.6,0-4.3-0.5-5.2-1.4c-0.9-0.9-1.4-2.5-1.4-4.8v-15.4v-8.8v-36.2c0-2.4,0.5-4,1.4-4.9c0.9-0.8,2.6-1.2,5.2-1.2h4.8
			h0.9h4.8c2.6,0,4.3,0.4,5.2,1.2c0.9,0.8,1.4,2.5,1.4,4.9v37.4V168.5z"/>
		<path class="st3" d="M621.2,107.5c-0.7-2.1-1.8-3.8-3.3-5.2c-2.9-2.8-7.1-4.2-12.3-4.2h-7c-8,0-13.9,2-17.6,5.9
			c-3.7,3.9-5.5,9.4-5.5,16.5v29.9v6.6v30.1c0,7.1,1.8,12.6,5.5,16.5c3.7,3.9,9.5,5.9,17.6,5.9h7c5.3,0,9.4-1.4,12.3-4.2
			c1.8-1.7,3-4,3.7-6.8v11H647V58h-25.8V107.5z M614.2,189.6h-6.8c-2.4,0-4.1-0.5-5-1.4s-1.4-2.5-1.4-4.8V157v-6.6v-26.3
			c0-2.4,0.5-4,1.4-4.9c0.9-0.8,2.6-1.2,5-1.2h6.8c2.6,0,4.4,0.6,5.4,1.7c1.1,1.1,1.6,3.1,1.6,6v7v43.7v5.7c0,2.7-0.5,4.6-1.6,5.8
			C618.6,189,616.8,189.6,614.2,189.6z"/>
		<path class="st3" d="M724.3,98.3h-10.6h-2.5h-10.9c-8.6,0-14.9,2-18.8,5.9c-3.9,3.9-5.9,9.4-5.9,16.5v66.4c0,7.1,2,12.6,5.9,16.5
			c3.9,3.9,10.2,5.9,18.8,5.9h10.9h1.6h11.1c8.6,0,14.9-2,18.8-5.9c3.9-3.9,5.9-9.4,5.9-16.5v-11.3h-24.9v8.4c0,2.3-0.4,3.9-1.2,4.8
			c-0.8,0.9-2.5,1.4-5.1,1.4h-4.5h-1.6h-4.3c-2.4,0-4.1-0.4-5-1.2c-0.9-0.8-1.4-2.5-1.4-4.9v-22.9h48.3v-3.4v-13.1v-24
			c0-7.1-1.9-12.6-5.8-16.5C739.1,100.3,732.9,98.3,724.3,98.3z M700.5,144.8v-21.3c0-2.4,0.5-4,1.4-4.9c0.9-0.8,2.6-1.2,5-1.2h4.3
			h2.5h4.1c2.6,0,4.3,0.4,5.1,1.2c0.8,0.8,1.2,2.5,1.2,4.9v21.3H700.5z"/>
		<rect x="775.9" y="58" class="st3" width="25.6" height="151.5"/>
		<path class="st3" d="M879,98.3h-10.6h-2.5H855c-8.6,0-14.9,2-18.8,5.9c-3.9,3.9-5.9,9.4-5.9,16.5v66.4c0,7.1,2,12.6,5.9,16.5
			c3.9,3.9,10.2,5.9,18.8,5.9h10.9h1.6h11.1c8.6,0,14.9-2,18.8-5.9c3.9-3.9,5.9-9.4,5.9-16.5v-11.3h-24.9v8.4c0,2.3-0.4,3.9-1.2,4.8
			c-0.8,0.9-2.5,1.4-5.1,1.4h-4.5h-1.6h-4.3c-2.4,0-4.1-0.4-5-1.2c-0.9-0.8-1.4-2.5-1.4-4.9v-22.9h48.3v-3.4v-13.1v-24
			c0-7.1-1.9-12.6-5.8-16.5C893.8,100.3,887.6,98.3,879,98.3z M855.2,144.8v-21.3c0-2.4,0.5-4,1.4-4.9c0.9-0.8,2.6-1.2,5-1.2h4.3
			h2.5h4.1c2.6,0,4.3,0.4,5.1,1.2c0.8,0.8,1.2,2.5,1.2,4.9v21.3H855.2z"/>
		<path class="st3" d="M978.9,98.3h-6.8c-5.3,0-9.4,1.4-12.5,4.2c-1.7,1.6-2.9,3.6-3.6,6V98.3h-25.4v111.2h25.6v-76.8v-7
			c0-2.7,0.6-4.6,1.7-5.8c1.1-1.1,2.9-1.7,5.3-1.7h6.8c2.6,0,4.3,0.4,5.1,1.2c0.8,0.8,1.2,2.5,1.2,4.9v85.2h25.8v-88.8
			c0-7.1-1.9-12.6-5.5-16.5C993,100.3,987.1,98.3,978.9,98.3z"/>
		<path class="st3" d="M1076.8,98.3h-9.1h-3.2h-10c-8.8,0-15.1,2-18.9,5.9c-3.9,3.9-5.8,9.4-5.8,16.5v66.4c0,7.1,1.9,12.6,5.8,16.5
			c3.9,3.9,10.2,5.9,18.9,5.9h10h2.5h9.7c8.8,0,15.1-2,18.9-5.9c3.9-3.9,5.8-9.4,5.8-16.5v-15.2h-25.1v11.6c0,2.3-0.4,3.9-1.2,4.8
			c-0.8,0.9-2.5,1.4-5.1,1.4h-2.9h-2.5h-2.7c-2.4,0-4.1-0.5-5-1.4c-0.9-0.9-1.4-2.5-1.4-4.8v-59.1c0-2.4,0.5-4,1.4-4.9
			c0.9-0.8,2.6-1.2,5-1.2h2.7h3.2h2.3c2.6,0,4.3,0.4,5.1,1.2c0.8,0.8,1.2,2.5,1.2,4.9v11.3h25.1v-15c0-7.1-1.9-12.6-5.8-16.5
			C1091.8,100.3,1085.5,98.3,1076.8,98.3z"/>
		<path class="st3" d="M1194.2,104.2c-3.9-3.9-10.1-5.9-18.7-5.9h-10.6h-2.5h-10.9c-8.6,0-14.9,2-18.8,5.9
			c-3.9,3.9-5.9,9.4-5.9,16.5v66.4c0,7.1,2,12.6,5.9,16.5c3.9,3.9,10.2,5.9,18.8,5.9h10.9h1.6h11.1c8.6,0,14.9-2,18.8-5.9
			c3.9-3.9,5.9-9.4,5.9-16.5v-11.3h-24.9v8.4c0,2.3-0.4,3.9-1.2,4.8c-0.8,0.9-2.5,1.4-5.1,1.4h-4.5h-1.6h-4.3c-2.4,0-4.1-0.4-5-1.2
			c-0.9-0.8-1.4-2.5-1.4-4.9v-22.9h48.3v-3.4v-13.1v-24C1200,113.6,1198.1,108.1,1194.2,104.2z M1151.7,144.8v-21.3
			c0-2.4,0.5-4,1.4-4.9c0.9-0.8,2.6-1.2,5-1.2h4.3h2.5h4.1c2.6,0,4.3,0.4,5.1,1.2c0.8,0.8,1.2,2.5,1.2,4.9v21.3H1151.7z"/>
	</g>
	<g>
		<polygon class="st4" points="238.8,130.9 238.8,68.9 119.4,0 65.7,31 		"/>
		<polygon class="st4" points="125.9,202.4 186.1,237.2 232.2,210.6 172,175.8 		"/>
		<polygon class="st4" points="178.6,111.3 178.6,164.5 238.8,199.2 238.8,146 		"/>
		<polygon class="st4" points="0,144.8 0,206.8 119.4,275.7 173.1,244.7 		"/>
		<polygon class="st4" points="112.8,73.3 52.6,38.5 6.5,65.2 66.8,99.9 		"/>
		<polygon class="st4" points="60.2,164.5 60.2,111.3 0,76.5 0,129.7 		"/>
	</g>
</g>
</svg>
